<?xml version="1.0" encoding="UTF-8"?>
<!DOCTYPE svg PUBLIC "-//W3C//DTD SVG 1.1//EN" "http://www.w3.org/Graphics/SVG/1.1/DTD/svg11.dtd">
<!-- Creator: CorelDRAW 2019 (64-Bit) -->
<svg xmlns="http://www.w3.org/2000/svg" xml:space="preserve" width="7.66528in" height="2.53194in" version="1.1" style="shape-rendering:geometricPrecision; text-rendering:geometricPrecision; image-rendering:optimizeQuality; fill-rule:evenodd; clip-rule:evenodd"
viewBox="0 0 8614.04 2845.33"
 xmlns:xlink="http://www.w3.org/1999/xlink">
 <defs>
  <style type="text/css">
   <![CDATA[
    .str0 {stroke:#201E1E;stroke-width:7.8;stroke-miterlimit:2.61313}
    .fil0 {fill:#201E1E}
   ]]>
  </style>
 </defs>
 <g id="Layer_x0020_1">
  <metadata id="CorelCorpID_0Corel-Layer"/>
  <path class="fil0 str0" d="M8610.14 3.9l-8606.24 0 0 2837.53 8606.24 0 0 -2837.53zm-1700.28 1174.59l-307.72 403.71c-34.57,38.75 -58.88,38.91 -90.72,-4.1l-297.91 -399.17c-46.57,-50.65 -133.9,-1.06 -104.77,69.06l320.16 430.78c78.73,97.65 189.72,88.47 270.41,-8.78l310.8 -416.73c41.46,-72.33 -53.32,-128.4 -100.25,-74.78zm-678.01 545.5l-307.72 -403.71c-34.57,-38.75 -58.88,-38.91 -90.72,4.1l-297.91 399.17c-46.57,50.65 -133.9,1.06 -104.77,-69.06l320.16 -430.78c78.73,-97.65 189.72,-88.47 270.41,8.78l310.8 416.73c41.46,72.33 -53.32,128.4 -100.25,74.78zm773.35 -62.74l335.62 -448.19c60.67,-71.72 185.76,-64.75 240.13,9.66l247.92 336.17c50.34,71.35 75.7,64.85 121.7,2.41l287.82 -377.6c50.28,-57.85 138.43,-5.92 106.71,64.64l-313.66 422.13c-61.29,86.85 -204.16,98.77 -263.42,17.06l-261.08 -350.18c-31.79,-47.36 -65.39,-51.57 -99.07,-6.21l-297.91 399.17c-69.48,35.78 -124.69,-2.69 -104.77,-69.06zm130.44 -486.97l-357.05 481.48c-24.72,62.68 36.43,113.89 104.77,69.06l357.05 -481.48c23.86,-74.5 -59.69,-113.59 -104.77,-69.06zm-3944.68 314.4l-41.58 0 0 187.85c0,24.81 -5.45,42.94 -16.36,54.67 -10.91,11.72 -25.22,17.58 -42.67,17.58 -18.95,0 -33.67,-6.13 -44.03,-18.4 -10.36,-12.27 -15.54,-30.13 -15.54,-53.85l0 -450.54c0,-25.49 5.73,-44.03 17.18,-55.48 11.45,-11.45 29.99,-17.18 55.49,-17.18l192.9 0c26.58,0 49.34,1.09 68.29,3.41 18.95,2.31 35.99,6.81 51.12,13.77 18.4,7.77 34.62,18.81 48.8,33.12 14.04,14.45 24.81,31.22 32.04,50.17 7.36,19.08 11.04,39.26 11.04,60.66 0,43.62 -12.27,78.52 -36.94,104.69 -24.67,26.04 -62.03,44.58 -112.05,55.49 20.99,11.18 41.17,27.67 60.39,49.49 19.09,21.81 36.26,45.12 51.26,69.66 15,24.67 26.72,46.76 35.17,66.66 8.31,19.77 12.54,33.4 12.54,40.9 0,7.63 -2.46,15.27 -7.36,22.9 -4.91,7.64 -11.59,13.64 -20.17,17.99 -8.45,4.36 -18.41,6.54 -29.59,6.54 -13.22,0 -24.4,-3.13 -33.53,-9.41 -9,-6.27 -16.77,-14.18 -23.31,-23.72 -6.54,-9.54 -15.41,-23.72 -26.58,-42.26l-47.58 -79.07c-17.04,-28.9 -32.31,-50.99 -45.67,-66.12 -13.49,-15.27 -27.13,-25.63 -41.03,-31.22 -13.77,-5.59 -31.22,-8.32 -52.21,-8.32zm67.89 -246.19l-109.47 0 0 161.13 106.2 0c28.49,0 52.48,-2.46 71.97,-7.36 19.36,-4.91 34.22,-13.36 44.44,-25.22 10.22,-11.86 15.41,-28.22 15.41,-48.94 0,-16.36 -4.09,-30.67 -12.41,-43.08 -8.18,-12.41 -19.63,-21.67 -34.35,-27.81 -13.77,-5.86 -41.03,-8.72 -81.79,-8.72zm693.05 430.1l-27.95 -73.48 -238.01 0 -27.95 74.98c-10.91,29.31 -20.17,49.07 -27.94,59.3 -7.64,10.22 -20.31,15.4 -37.9,15.4 -14.86,0 -28.08,-5.45 -39.53,-16.36 -11.45,-10.91 -17.18,-23.31 -17.18,-37.08 0,-8.04 1.36,-16.36 3.95,-24.81 2.73,-8.59 7.09,-20.31 13.22,-35.58l149.68 -380.07c4.36,-10.91 9.41,-23.99 15.41,-39.26 6,-15.4 12.41,-28.08 19.22,-38.17 6.82,-10.09 15.68,-18.27 26.72,-24.54 11.04,-6.27 24.67,-9.41 40.89,-9.41 16.63,0 30.4,3.14 41.44,9.41 11.04,6.27 19.9,14.31 26.72,24.13 6.82,9.81 12.54,20.44 17.18,31.76 4.64,11.31 10.64,26.44 17.72,45.26l152.95 377.75c11.99,28.76 17.99,49.62 17.99,62.71 0,13.5 -5.59,26.04 -16.91,37.35 -11.31,11.31 -25.08,16.9 -41.03,16.9 -9.27,0 -17.31,-1.63 -23.99,-5.04 -6.54,-3.27 -12.13,-7.77 -16.77,-13.49 -4.5,-5.73 -9.27,-14.59 -14.45,-26.31 -5.32,-11.86 -9.68,-22.36 -13.49,-31.35zm-234.74 -162.63l174.9 0 -88.2 -241.29 -86.7 241.29zm454.49 -356.62l154.59 0c40.22,0 74.7,3.68 103.47,11.18 28.9,7.5 54.94,21.54 78.39,41.99 60.94,52.21 91.47,131.68 91.47,238.15 0,35.17 -3,67.21 -9.14,96.24 -6.13,29.04 -15.68,55.21 -28.35,78.52 -12.82,23.31 -29.17,44.17 -49.21,62.57 -15.68,14.04 -32.85,25.36 -51.53,33.81 -18.68,8.59 -38.72,14.59 -60.12,17.99 -21.4,3.41 -45.67,5.18 -72.52,5.18l-154.59 0c-21.54,0 -37.76,-3.27 -48.8,-9.81 -10.9,-6.54 -17.99,-15.68 -21.26,-27.54 -3.41,-11.86 -5.04,-27.27 -5.04,-46.08l0 -429.55c0,-25.49 5.73,-44.03 17.18,-55.48 11.45,-11.45 29.99,-17.18 55.49,-17.18zm45.94 94.07l0 397.51 89.97 0c19.63,0 35.17,-0.54 46.35,-1.64 11.18,-1.09 22.77,-3.68 34.76,-7.91 11.99,-4.36 22.36,-10.36 31.08,-17.99 39.67,-33.54 59.57,-91.34 59.57,-173.4 0,-57.8 -8.72,-101.15 -26.17,-129.91 -17.45,-28.77 -38.99,-47.03 -64.48,-54.94 -25.63,-7.77 -56.57,-11.72 -92.7,-11.72l-78.39 0zm415.49 429.14l0 -461.17c0,-23.99 5.46,-41.85 16.36,-53.85 10.91,-11.99 25.08,-17.99 42.39,-17.99 17.72,0 32.17,5.86 43.21,17.72 11.04,11.86 16.63,29.86 16.63,54.12l0 461.17c0,24.27 -5.59,42.26 -16.63,54.26 -11.04,12 -25.49,17.99 -43.21,17.99 -17.04,0 -31.08,-5.99 -42.12,-18.13 -11.04,-12.13 -16.63,-30.13 -16.63,-54.12zm433.35 -533.01c60.8,0 112.87,12.27 156.36,36.94 43.49,24.54 76.48,59.57 98.83,104.97 22.36,45.39 33.54,98.7 33.54,159.9 0,45.26 -6.14,86.43 -18.41,123.37 -12.27,37.08 -30.54,69.12 -55.07,96.24 -24.54,27.13 -54.53,47.85 -90.24,62.3 -35.72,14.31 -76.48,21.54 -122.55,21.54 -45.8,0 -86.84,-7.36 -122.96,-22.22 -36.26,-14.72 -66.39,-35.58 -90.65,-62.44 -24.27,-26.86 -42.54,-59.16 -54.94,-97.06 -12.41,-37.76 -18.54,-78.66 -18.54,-122.55 0,-44.98 6.41,-86.15 19.36,-123.78 12.95,-37.49 31.63,-69.39 56.17,-95.83 24.4,-26.31 54.26,-46.49 89.43,-60.39 35.03,-14.04 74.97,-20.99 119.69,-20.99zm168.5 300.99c0,-42.8 -6.96,-80.02 -20.72,-111.51 -13.9,-31.35 -33.67,-55.07 -59.3,-71.29 -25.63,-16.09 -55.21,-24.13 -88.47,-24.13 -23.58,0 -45.53,4.5 -65.57,13.36 -20.17,8.99 -37.49,21.94 -51.94,38.99 -14.45,17.04 -25.9,38.85 -34.35,65.3 -8.32,26.58 -12.54,56.3 -12.54,89.29 0,33.4 4.23,63.39 12.54,90.38 8.45,26.86 20.31,49.21 35.58,66.93 15.27,17.72 32.85,30.95 52.62,39.67 19.9,8.86 41.58,13.22 65.3,13.22 30.4,0 58.21,-7.63 83.7,-22.76 25.36,-15.13 45.53,-38.58 60.66,-70.34 14.99,-31.63 22.49,-70.75 22.49,-117.1zm-2548.98 -648.54l109.46 -0.29c173.42,452.82 119.31,857.16 -88.11,1228.83 -250.83,357.97 -596.64,601.96 -1128.46,622.76 -417.58,-19.49 -782.68,-167.8 -1062.9,-524.43 -279.5,-402.54 -354,-859.17 -152.77,-1328.04l107.7 1.17c-176.93,407.19 -171.76,816.87 107.08,1230.29 241.71,337.51 566.59,498.3 958.14,517.41l-0.58 -129.94c-39.91,-14.68 -62.13,-38.21 -61.46,-73.16l-1.17 -230.6c-182.03,-33.58 -328.74,-118.8 -429.61,-271 -92.53,-132.26 -120.53,-298.91 -108.86,-486.97l-40.68 -67.6 0.28 -139.89 41.26 -56.78 -0.59 -61.76 126.72 -0.59 1.43 519.44c45.51,272.13 232.67,433.13 504.5,450.08 275.11,-7.83 445.37,-165.24 506.27,-448.94l-0.89 -520.04 117.65 -0.3 -0.15 66.58c19.29,5.63 34.25,18.81 44.17,40.82l0 168.57c-6.58,27.92 -21.72,45.15 -43.9,53.55l0.86 192.56c-41.35,296.34 -213.82,502.01 -513.87,565.4l1.13 228.27c-3.81,42.32 -29.64,59.71 -68.48,71.99l-0.6 131.69c436.74,-30.24 732.47,-209.13 938.21,-482.87 270.91,-389.53 341.79,-808.01 138.22,-1266.22zm-327.94 -1.4c-75.45,306.95 -72.98,545.25 -2.33,827.62 59.49,-276.2 67.07,-535.46 2.33,-827.62zm132.98 72.33c-59.79,248.86 -59.39,449.03 -1.95,691.99 55.22,-228.35 62.94,-444.61 1.95,-691.99zm224.11 203.68c-41.19,112.58 -39.22,202.92 -0.88,312.53 37.11,-100.23 45.65,-196.55 0.88,-312.53zm-106.25 -56.14c-56.42,155.02 -50.87,274.83 -1.18,417.57 42.57,-132.97 49.15,-262.57 1.18,-417.57zm-1472.55 -374.92c101.33,-522.86 771.78,-513.76 858.05,-2.34l-261.41 -0.86c-63.92,18.48 -66.1,102.01 -0.1,124l259.18 -0.81 0.87 136.67 -259.95 0c-62.39,22.98 -63.4,103.21 -0.05,129.9l261.15 -0.85 -0.59 131.11 -260.66 2.02c-61.08,16.04 -62.21,106.83 0.12,126.38l259.95 -0.81 2.33 141.06 -262.36 0.56c-61.81,19.08 -60.14,99.03 0,119.58l261.77 0.44c-121.06,496.87 -737.77,490.3 -859.81,-0l267.48 -0.37c62.91,-18.4 63.08,-102.39 -0.04,-120.01l-265.1 0.98 0 -142.81 265.36 1.39c65.51,-18.78 58.63,-107.8 -0.44,-126.57l-265.52 -0.08 0 -132.86 265.76 0.84c59.48,-14.75 63.9,-110.05 -0.12,-129.97l-265.07 -0.81 0.58 -134.91 264.85 -0.29c63.89,-15.3 57.66,-108.49 -0.29,-122.92l-265.92 2.34zm-346.87 161.24c75.45,306.95 72.98,545.25 2.33,827.62 -59.49,-276.2 -67.07,-535.46 -2.33,-827.62zm-132.98 72.33c59.79,248.86 59.39,449.03 1.95,691.99 -55.22,-228.35 -62.94,-444.61 -1.95,-691.99zm-224.11 203.68c41.19,112.58 39.22,202.92 0.88,312.53 -37.11,-100.23 -45.65,-196.55 -0.88,-312.53zm106.25 -56.14c56.42,155.02 50.87,274.83 1.18,417.57 -42.57,-132.97 -49.15,-262.57 -1.18,-417.57z"/>
 </g>
</svg>
