<?xml version="1.0" encoding="UTF-8"?>
<!DOCTYPE svg PUBLIC "-//W3C//DTD SVG 1.1//EN" "http://www.w3.org/Graphics/SVG/1.1/DTD/svg11.dtd">
<!-- Creator: CorelDRAW 2019 (64-Bit) -->
<svg xmlns="http://www.w3.org/2000/svg" xml:space="preserve" width="10.3127in" height="2.27648in" version="1.1" style="shape-rendering:geometricPrecision; text-rendering:geometricPrecision; image-rendering:optimizeQuality; fill-rule:evenodd; clip-rule:evenodd"
viewBox="0 0 10192.89 2250.03"
 xmlns:xlink="http://www.w3.org/1999/xlink">
 <defs>
  <style type="text/css">
   <![CDATA[
    .str0 {stroke:#201E1E;stroke-width:6.86;stroke-miterlimit:2.61313}
    .fil0 {fill:#201E1E}
   ]]>
  </style>
 </defs>
 <g id="Layer_x0020_1">
  <metadata id="CorelCorpID_0Corel-Layer"/>
  <path class="fil0 str0" d="M3.45 4.46l9.78 2238.02 10165.92 4.12 10.29 -2243.16 -10185.99 1.03zm7393.31 882.73l-270.65 355.07c-30.41,34.08 -51.78,34.22 -79.79,-3.6l-262.02 -351.08c-40.96,-44.54 -117.77,-0.93 -92.15,60.74l281.58 378.88c69.25,85.88 166.86,77.81 237.83,-7.72l273.36 -366.53c36.47,-63.61 -46.89,-112.93 -88.17,-65.77zm-596.32 479.78l-270.65 -355.07c-30.41,-34.08 -51.78,-34.22 -79.79,3.6l-262.02 351.08c-40.96,44.54 -117.77,0.93 -92.15,-60.74l281.58 -378.88c69.25,-85.88 166.86,-77.81 237.83,7.72l273.36 366.53c36.47,63.61 -46.89,112.93 -88.17,65.77zm680.17 -55.18l295.18 -394.19c53.36,-63.08 163.38,-56.95 211.2,8.5l218.05 295.67c44.28,62.75 66.58,57.03 107.04,2.12l253.14 -332.11c44.22,-50.88 121.75,-5.21 93.86,56.85l-275.87 371.27c-53.91,76.39 -179.57,86.87 -231.69,15.01l-229.62 -307.99c-27.96,-41.66 -57.51,-45.36 -87.13,-5.46l-262.02 351.08c-61.11,31.47 -109.67,-2.36 -92.15,-60.74zm114.73 -428.3l-314.04 423.47c-21.74,55.13 32.04,100.17 92.15,60.74l314.04 -423.47c20.99,-65.53 -52.5,-99.9 -92.15,-60.74zm-3469.43 276.52l-36.57 0 0 165.22c0,21.82 -4.79,37.77 -14.39,48.08 -9.59,10.31 -22.18,15.46 -37.53,15.46 -16.67,0 -29.62,-5.39 -38.73,-16.18 -9.11,-10.79 -13.67,-26.5 -13.67,-47.36l0 -396.26c0,-22.42 5.04,-38.73 15.11,-48.8 10.07,-10.07 26.38,-15.11 48.8,-15.11l169.66 0c23.38,0 43.4,0.96 60.07,3 16.67,2.04 31.66,5.99 44.96,12.11 16.18,6.83 30.45,16.55 42.92,29.13 12.35,12.71 21.82,27.46 28.18,44.12 6.48,16.78 9.71,34.53 9.71,53.35 0,38.37 -10.79,69.06 -32.49,92.08 -21.7,22.9 -54.56,39.21 -98.55,48.8 18.46,9.83 36.21,24.34 53.11,43.52 16.79,19.18 31.89,39.68 45.08,61.26 13.19,21.7 23.5,41.13 30.94,58.63 7.31,17.39 11.03,29.38 11.03,35.97 0,6.71 -2.16,13.43 -6.48,20.14 -4.32,6.72 -10.19,11.99 -17.74,15.83 -7.44,3.84 -16.19,5.76 -26.02,5.76 -11.63,0 -21.46,-2.76 -29.49,-8.27 -7.91,-5.51 -14.75,-12.47 -20.5,-20.86 -5.76,-8.39 -13.55,-20.86 -23.38,-37.17l-41.85 -69.54c-14.99,-25.42 -28.41,-44.84 -40.17,-58.15 -11.87,-13.43 -23.86,-22.54 -36.09,-27.46 -12.11,-4.91 -27.46,-7.32 -45.92,-7.32zm59.71 -216.53l-96.28 0 0 141.72 93.4 0c25.06,0 46.16,-2.16 63.3,-6.48 17.03,-4.32 30.1,-11.75 39.09,-22.18 8.99,-10.43 13.55,-24.82 13.55,-43.05 0,-14.39 -3.6,-26.97 -10.91,-37.89 -7.19,-10.91 -17.27,-19.06 -30.22,-24.46 -12.11,-5.16 -36.09,-7.67 -71.94,-7.67zm609.55 378.28l-24.58 -64.63 -209.34 0 -24.58 65.95c-9.59,25.78 -17.74,43.16 -24.58,52.15 -6.72,8.99 -17.86,13.55 -33.33,13.55 -13.07,0 -24.7,-4.79 -34.77,-14.39 -10.07,-9.59 -15.11,-20.5 -15.11,-32.61 0,-7.07 1.2,-14.39 3.47,-21.82 2.4,-7.55 6.23,-17.86 11.63,-31.29l131.65 -334.28c3.84,-9.59 8.27,-21.1 13.55,-34.53 5.28,-13.55 10.91,-24.7 16.9,-33.57 6,-8.87 13.79,-16.07 23.5,-21.58 9.71,-5.51 21.7,-8.27 35.97,-8.27 14.63,0 26.74,2.76 36.45,8.27 9.71,5.51 17.5,12.59 23.5,21.22 6,8.63 11.03,17.98 15.11,27.94 4.08,9.95 9.35,23.26 15.59,39.8l134.52 332.24c10.55,25.3 15.83,43.64 15.83,55.15 0,11.87 -4.91,22.9 -14.87,32.85 -9.95,9.95 -22.06,14.86 -36.09,14.86 -8.15,0 -15.23,-1.44 -21.1,-4.44 -5.76,-2.88 -10.67,-6.83 -14.75,-11.87 -3.96,-5.04 -8.15,-12.83 -12.71,-23.14 -4.68,-10.43 -8.51,-19.66 -11.87,-27.57zm-206.46 -143.04l153.83 0 -77.57 -212.22 -76.25 212.22zm399.73 -313.65l135.96 0c35.37,0 65.7,3.24 91,9.83 25.42,6.6 48.32,18.94 68.94,36.93 53.59,45.92 80.45,115.82 80.45,209.46 0,30.94 -2.64,59.11 -8.04,84.65 -5.39,25.54 -13.79,48.56 -24.94,69.06 -11.27,20.5 -25.66,38.85 -43.28,55.03 -13.79,12.35 -28.9,22.3 -45.32,29.73 -16.43,7.55 -34.05,12.83 -52.87,15.83 -18.83,3 -40.17,4.56 -63.79,4.56l-135.96 0c-18.94,0 -33.21,-2.88 -42.92,-8.63 -9.59,-5.76 -15.83,-13.79 -18.7,-24.22 -3,-10.43 -4.44,-23.98 -4.44,-40.53l0 -377.8c0,-22.42 5.04,-38.73 15.11,-48.8 10.07,-10.07 26.38,-15.11 48.8,-15.11zm40.4 82.73l0 349.62 79.13 0c17.27,0 30.93,-0.48 40.76,-1.44 9.83,-0.96 20.02,-3.24 30.57,-6.95 10.55,-3.84 19.66,-9.11 27.34,-15.83 34.89,-29.5 52.4,-80.33 52.4,-152.51 0,-50.84 -7.67,-88.96 -23.02,-114.26 -15.35,-25.3 -34.29,-41.37 -56.71,-48.32 -22.54,-6.83 -49.76,-10.31 -81.53,-10.31l-68.94 0zm365.43 377.43l0 -405.61c0,-21.1 4.8,-36.81 14.39,-47.36 9.59,-10.55 22.06,-15.83 37.29,-15.83 15.59,0 28.3,5.16 38.01,15.58 9.71,10.43 14.63,26.26 14.63,47.6l0 405.61c0,21.34 -4.91,37.17 -14.63,47.72 -9.71,10.55 -22.42,15.83 -38.01,15.83 -14.99,0 -27.34,-5.27 -37.05,-15.95 -9.71,-10.67 -14.63,-26.5 -14.63,-47.6zm381.14 -468.8c53.47,0 99.27,10.79 137.52,32.49 38.25,21.58 67.26,52.4 86.93,92.32 19.66,39.92 29.5,86.81 29.5,140.64 0,39.81 -5.4,76.02 -16.19,108.51 -10.79,32.61 -26.86,60.79 -48.44,84.65 -21.58,23.86 -47.96,42.08 -79.37,54.79 -31.41,12.59 -67.26,18.94 -107.79,18.94 -40.29,0 -76.37,-6.47 -108.15,-19.54 -31.89,-12.95 -58.39,-31.29 -79.73,-54.91 -21.34,-23.62 -37.41,-52.03 -48.32,-85.37 -10.91,-33.21 -16.31,-69.18 -16.31,-107.79 0,-39.56 5.63,-75.77 17.02,-108.87 11.39,-32.97 27.82,-61.03 49.4,-84.28 21.46,-23.14 47.72,-40.89 78.65,-53.12 30.81,-12.35 65.94,-18.46 105.27,-18.46zm148.19 264.73c0,-37.64 -6.12,-70.38 -18.23,-98.08 -12.23,-27.57 -29.61,-48.44 -52.15,-62.7 -22.54,-14.15 -48.56,-21.22 -77.81,-21.22 -20.74,0 -40.05,3.96 -57.67,11.75 -17.74,7.91 -32.97,19.3 -45.68,34.29 -12.71,14.99 -22.78,34.17 -30.22,57.43 -7.32,23.38 -11.03,49.52 -11.03,78.53 0,29.38 3.72,55.75 11.03,79.49 7.43,23.62 17.86,43.28 31.29,58.87 13.43,15.59 28.89,27.22 46.28,34.89 17.51,7.79 36.57,11.63 57.43,11.63 26.74,0 51.2,-6.71 73.62,-20.02 22.3,-13.31 40.05,-33.93 53.35,-61.87 13.19,-27.82 19.78,-62.23 19.78,-102.99zm-2241.88 -570.4l96.27 -0.26c152.53,398.27 104.94,753.89 -77.49,1080.78 -220.61,314.84 -524.76,529.44 -992.5,547.73 -367.27,-17.14 -688.38,-147.58 -934.85,-461.24 -245.83,-354.04 -311.35,-755.66 -134.37,-1168.04l94.72 1.03c-155.61,358.13 -151.07,718.45 94.18,1082.07 212.59,296.85 498.32,438.27 842.7,455.07l-0.51 -114.28c-35.1,-12.91 -54.64,-33.6 -54.05,-64.35l-1.03 -202.82c-160.1,-29.54 -289.14,-104.49 -377.85,-238.35 -81.38,-116.32 -106.01,-262.9 -95.75,-428.3l-35.78 -59.46 0.25 -123.03 36.29 -49.94 -0.52 -54.32 111.45 -0.52 1.26 456.86c40.03,239.34 204.64,380.94 443.72,395.85 241.97,-6.89 391.71,-145.33 445.28,-394.85l-0.78 -457.39 103.48 -0.26 -0.14 58.56c16.97,4.95 30.12,16.54 38.85,35.9l0 148.26c-5.79,24.56 -19.1,39.71 -38.61,47.1l0.76 169.36c-36.36,260.64 -188.06,441.53 -451.95,497.28l0.99 200.77c-3.35,37.22 -26.07,52.52 -60.23,63.32l-0.53 115.83c384.12,-26.6 644.22,-183.93 825.17,-424.7 238.27,-342.6 300.61,-710.66 121.57,-1113.66zm-288.43 -1.23c-66.36,269.97 -64.19,479.56 -2.05,727.91 52.32,-242.92 58.99,-470.95 2.05,-727.91zm116.96 63.62c-52.59,218.88 -52.24,394.93 -1.71,608.62 48.56,-200.84 55.36,-391.04 1.71,-608.62zm197.11 179.14c-36.22,99.02 -34.5,178.47 -0.77,274.88 32.64,-88.15 40.15,-172.87 0.77,-274.88zm-93.45 -49.38c-49.63,136.34 -44.74,241.72 -1.04,367.26 37.44,-116.95 43.22,-230.94 1.04,-367.26zm-1295.14 -329.75c89.12,-459.87 678.79,-451.87 754.67,-2.06l-229.92 -0.76c-56.22,16.25 -58.14,89.72 -0.09,109.06l227.95 -0.71 0.77 120.21 -228.64 0c-54.87,20.22 -55.76,90.77 -0.04,114.25l229.69 -0.74 -0.52 115.31 -229.26 1.77c-53.72,14.11 -54.72,93.96 0.1,111.15l228.63 -0.71 2.05 124.07 -230.75 0.49c-54.36,16.78 -52.89,87.1 0,105.17l230.23 0.39c-106.48,437.01 -648.88,431.23 -756.22,-0l235.26 -0.33c55.33,-16.18 55.48,-90.06 -0.03,-105.55l-233.16 0.86 0 -125.61 233.39 1.22c57.61,-16.51 51.56,-94.81 -0.39,-111.32l-233.53 -0.07 0 -116.85 233.74 0.74c52.31,-12.97 56.2,-96.8 -0.1,-114.31l-233.14 -0.71 0.51 -118.66 232.94 -0.26c56.19,-13.46 50.71,-95.42 -0.26,-108.11l-233.88 2.06zm-305.08 141.82c66.36,269.97 64.19,479.56 2.05,727.91 -52.32,-242.92 -58.99,-470.95 -2.05,-727.91zm-116.96 63.62c52.59,218.88 52.24,394.93 1.71,608.62 -48.56,-200.84 -55.36,-391.04 -1.71,-608.62zm-197.11 179.14c36.22,99.02 34.5,178.47 0.77,274.88 -32.64,-88.15 -40.15,-172.87 -0.77,-274.88zm93.45 -49.38c49.63,136.34 44.74,241.72 1.04,367.26 -37.44,-116.95 -43.22,-230.94 -1.04,-367.26z"/>
 </g>
</svg>
